<svg xmlns="http://www.w3.org/2000/svg" xmlns:xlink="http://www.w3.org/1999/xlink" width="29" height="26" viewBox="0 0 29 26">
  <defs>
    <clipPath id="clip-path">
      <rect id="Rectángulo_180" data-name="Rectángulo 180" width="29" height="26" transform="translate(0.017)" fill="#ebebeb"/>
    </clipPath>
  </defs>
  <g id="criolla" transform="translate(-0.017)" clip-path="url(#clip-path)">
    <g id="arepa" transform="translate(1.509 0.813)">
      <path id="Trazado_777" data-name="Trazado 777" d="M24.865,14.154l-.005-.007a2.256,2.256,0,0,1-.389-1.933A2.278,2.278,0,0,0,23.4,9.677a2.3,2.3,0,0,1-1.119-1.64l-.007-.049A2.257,2.257,0,0,0,20.349,6.1,2.456,2.456,0,0,1,18.626,5L18.6,4.959a2.371,2.371,0,0,0-2.567-1.013,2.38,2.38,0,0,1-1.97-.384l0,0a2.379,2.379,0,0,0-2.795,0l0,0a2.379,2.379,0,0,1-1.974.383L9.13,3.906A2.145,2.145,0,0,0,6.7,5,2.019,2.019,0,0,1,5.186,6.071l-.281.04a2.159,2.159,0,0,0-1.84,1.8A2.561,2.561,0,0,1,1.928,9.677l-.1.068a2.269,2.269,0,0,0-.968,2.469,2.262,2.262,0,0,1-.391,1.935l0,0a2.261,2.261,0,0,0,0,2.741l0,0,.007.009A2.6,2.6,0,0,0,2.55,17.955H22.777a2.6,2.6,0,0,0,2.078-1.047l.007-.009,0,0a2.26,2.26,0,0,0,0-2.741Z" transform="translate(0.001 -3.105)" fill="#60d9a7"/>
      <path id="Trazado_778" data-name="Trazado 778" d="M4.69,29.9c0-5.231,1.7-9.379,4.953-11.894a2.38,2.38,0,0,1-.355-.06l-.157-.039A2.145,2.145,0,0,0,6.7,19a2.019,2.019,0,0,1-1.515,1.075l-.281.04a2.159,2.159,0,0,0-1.84,1.8,2.561,2.561,0,0,1-1.137,1.762l-.1.068a2.269,2.269,0,0,0-.968,2.469,2.262,2.262,0,0,1-.391,1.935l0,0a2.261,2.261,0,0,0,0,2.741l0,0,.007.009A2.6,2.6,0,0,0,2.551,31.96h2.3A13.428,13.428,0,0,1,4.69,29.9Z" transform="translate(0 -17.11)" fill="#00cd8c"/>
      <ellipse id="Elipse_31" data-name="Elipse 31" cx="10.33" cy="10.13" rx="10.33" ry="10.13" transform="translate(2.335 4.268)" fill="#ffdebb"/>
      <g id="Grupo_389" data-name="Grupo 389" transform="translate(6.995 6.612)">
        <path id="Trazado_779" data-name="Trazado 779" d="M186.215,177.881a.959.959,0,0,0-1.338,0l-5.146,5.046a.915.915,0,0,0,0,1.312.959.959,0,0,0,1.338,0l5.146-5.046A.915.915,0,0,0,186.215,177.881Z" transform="translate(-177.304 -175.5)" fill="#ffca8a"/>
        <path id="Trazado_780" data-name="Trazado 780" d="M142.252,135.683a.959.959,0,0,0-1.338,0L137.534,139a.915.915,0,0,0,0,1.312.959.959,0,0,0,1.338,0l3.38-3.315A.915.915,0,0,0,142.252,135.683Z" transform="translate(-137.257 -135.411)" fill="#ffca8a"/>
        <path id="Trazado_781" data-name="Trazado 781" d="M261.291,254.723a.959.959,0,0,0-1.338,0l-3.38,3.315a.915.915,0,0,0,0,1.312.959.959,0,0,0,1.338,0l3.38-3.315A.915.915,0,0,0,261.291,254.723Z" transform="translate(-250.229 -248.502)" fill="#ffca8a"/>
      </g>
      <path id="Trazado_785" data-name="Trazado 785" d="M48.164,151.224a19.237,19.237,0,0,1,.791-5.675,10.006,10.006,0,0,0-3.147,7.279,10.2,10.2,0,0,0,9.1,10.058A13.527,13.527,0,0,1,48.164,151.224Z" transform="translate(-43.473 -138.43)" fill="#ffca8a"/>
    </g>
  </g>
</svg>
