<svg id="desayuno" xmlns="http://www.w3.org/2000/svg" width="29" height="26" viewBox="0 0 29 26">
  <rect id="Rectángulo_177" data-name="Rectángulo 177" width="29" height="26" fill="none"/>
  <g id="breakfast" transform="translate(1.283 2.841)">
    <g id="Grupo_392" data-name="Grupo 392">
      <path id="Trazado_787" data-name="Trazado 787" d="M175.042,120.878v-1.166h-4.728c.175-1.491.217-2.46.217-2.46H150.385s.534,12.381,5.8,16.766h8.547a11.379,11.379,0,0,0,2.752-3.676,8.506,8.506,0,0,0,4.718-2.362,10.936,10.936,0,0,0,2.84-7.1Zm-6.428,6.729a36.227,36.227,0,0,0,1.365-5.56h2.606a9.193,9.193,0,0,1-.837,2.607,6.02,6.02,0,0,1-3.134,2.953Z" transform="translate(-148.494 -117.251)" fill="#e9edf5"/>
      <path id="Trazado_788" data-name="Trazado 788" d="M294.383,119.71h-4.727c.175-1.491.217-2.46.217-2.46H279.8v16.766h4.274a11.392,11.392,0,0,0,2.752-3.676,8.511,8.511,0,0,0,4.718-2.362,10.939,10.939,0,0,0,2.841-7.1Zm-3.293,4.942a6.018,6.018,0,0,1-3.133,2.953,36.274,36.274,0,0,0,1.365-5.56h2.606A9.186,9.186,0,0,1,291.09,124.653Z" transform="translate(-267.837 -117.25)" fill="#c3c9d4"/>
      <g id="Grupo_391" data-name="Grupo 391" transform="translate(1.401 8.61)">
        <path id="Trazado_789" data-name="Trazado 789" d="M79.461,229.4c.662,0,1.313-.654,1.947-.605a23.213,23.213,0,0,1,2.994.418c.679.142,1.326,1.069,1.936,1.265.725.232,1.4-.257,2,.041,2.214,1.087,3.581,2.578,3.581,4.223,0,3.325-5.58,3.231-12.462,3.231S67,238.067,67,234.741c0-1.646,1.366-3.136,3.581-4.223.541-.266,1.37.313,2,.1.678-.228,1.168-1.245,1.935-1.405a23.111,23.111,0,0,1,2.994-.418C78.149,228.746,78.8,229.4,79.461,229.4Z" transform="translate(-67 -228.721)" fill="#ffaa20"/>
        <path id="Trazado_790" data-name="Trazado 790" d="M239.572,234.737c0,3.326-5.58,3.231-12.462,3.231V229.4c.662,0,1.312-.654,1.947-.606a23.3,23.3,0,0,1,2.994.419c.679.142,1.326,1.069,1.936,1.264.725.233,1.4-.257,2,.041C238.206,231.6,239.572,233.092,239.572,234.737Z" transform="translate(-214.648 -228.716)" fill="#ffaa20"/>
        <g id="Grupo_390" data-name="Grupo 390" transform="translate(3.581)">
          <path id="Trazado_791" data-name="Trazado 791" d="M116.946,234.2a6,6,0,0,1,.069.913c0,1.939-.9,3.512-2.011,3.512-1.035,0-1.887-1.365-2-3.119A16.82,16.82,0,0,1,116.946,234.2Z" transform="translate(-113.006 -233.703)" fill="#ff8900"/>
          <path id="Trazado_792" data-name="Trazado 792" d="M289.774,234.2a16.845,16.845,0,0,1,3.94,1.305c-.111,1.754-.963,3.119-2,3.119-1.11,0-2.011-1.572-2.011-3.512A5.988,5.988,0,0,1,289.774,234.2Z" transform="translate(-275.952 -233.703)" fill="#e57200"/>
          <path id="Trazado_793" data-name="Trazado 793" d="M203.288,227.876c.662,0,1.313.025,1.947.074a7.237,7.237,0,0,1,.064.971c0,2.138-.9,3.872-2.011,3.872s-2.01-1.734-2.01-3.872a7.237,7.237,0,0,1,.064-.971c.634-.048,1.284-.074,1.946-.074Z" transform="translate(-194.408 -227.876)" fill="#ff8900"/>
          <path id="Trazado_794" data-name="Trazado 794" d="M229.12,228.924c0,2.138-.9,3.872-2.01,3.872V227.88q.994,0,1.947.073A7.254,7.254,0,0,1,229.12,228.924Z" transform="translate(-218.229 -227.88)" fill="#e57200"/>
        </g>
      </g>
      <path id="Trazado_795" data-name="Trazado 795" d="M73.866,332.241h-23.5A1.539,1.539,0,0,1,49,330.571v-.856a1.539,1.539,0,0,1,1.359-1.67h23.5a1.539,1.539,0,0,1,1.359,1.67v.856A1.539,1.539,0,0,1,73.866,332.241Z" transform="translate(-49.004 -311.639)" fill="#436375"/>
      <path id="Trazado_796" data-name="Trazado 796" d="M272.111,329.719v.856a1.67,1.67,0,0,1-1.67,1.67H256v-4.2h14.441A1.67,1.67,0,0,1,272.111,329.719Z" transform="translate(-245.889 -311.643)" fill="#274a59"/>
    </g>
  </g>
</svg>
