<svg xmlns="http://www.w3.org/2000/svg" xmlns:xlink="http://www.w3.org/1999/xlink" width="29" height="26" viewBox="0 0 29 26">
  <defs>
    <clipPath id="clip-path">
      <rect id="Rectángulo_176" data-name="Rectángulo 176" width="29" height="26" fill="#ebebeb"/>
    </clipPath>
  </defs>
  <g id="pizza" clip-path="url(#clip-path)">
    <g id="Grupo_410" data-name="Grupo 410" transform="translate(8.602 0.841) rotate(38)">
      <path id="Trazado_717" data-name="Trazado 717" d="M22.231,1.382a.2.2,0,0,0-.125-.363,4.065,4.065,0,0,1-.793-.025A23.008,23.008,0,0,0,17.9.646C14.85.473,11.806-.1,8.738.039,6.184.151,3.624-.074,1.072.027.618.044.65-.028.569.4A25.816,25.816,0,0,0,.02,3.722,23.079,23.079,0,0,0,.677,9.582c.071.355.072,1.007.519,1.1a1.923,1.923,0,0,0,.853-.249,9.1,9.1,0,0,0,.923-.45C6.208,8.2,9.858,7.262,13.261,5.839c2.167-.907,4.4-2.009,6.522-3.012A25.466,25.466,0,0,0,22.231,1.382Z" transform="translate(1.456 1.022)" fill="#e6c851"/>
      <path id="Trazado_718" data-name="Trazado 718" d="M2.591,1.4a2.4,2.4,0,0,0-.3,1.174,12.32,12.32,0,0,0-.016,1.647,9.469,9.469,0,0,0,.877,3.693,20.749,20.749,0,0,1,1.222,2.378c.226.659.533,1.713.1,2.347a1.623,1.623,0,0,1-2.423.456A3.2,3.2,0,0,1,.862,11.374,24.977,24.977,0,0,1,.188,8.3a14.589,14.589,0,0,1,.3-6.055A3.108,3.108,0,0,1,1.924.1c.441-.229.92-.07.956.486C2.908,1.014,2.578,1.181,2.591,1.4Z" transform="translate(0 0)" fill="#bd934f"/>
      <path id="Trazado_719" data-name="Trazado 719" d="M2.148.024a2.856,2.856,0,0,0-1.8.667A.929.929,0,0,0,.066,1.716a1.116,1.116,0,0,0,.917.476,4.264,4.264,0,0,0,2.658-.515C4.214,1.336,5.272.291,4.07.105A8.2,8.2,0,0,0,2.148.024Z" transform="translate(4.225 1.94)" fill="#d63a3a"/>
      <path id="Trazado_720" data-name="Trazado 720" d="M.289.639A.823.823,0,0,0,.022,1.4c.1.34.513.469.867.5a3.876,3.876,0,0,0,2.474-.669A.86.86,0,0,0,3.779.69C3.9-.159,2.678.071,2.217.019A2.213,2.213,0,0,0,.289.639Z" transform="translate(9.815 4.231)" fill="#d63a3a"/>
      <path id="Trazado_721" data-name="Trazado 721" d="M.165.919a.788.788,0,0,0-.1.776.843.843,0,0,0,.462.345,2.385,2.385,0,0,0,2.3-.362,1.414,1.414,0,0,0,.447-.565.8.8,0,0,0-.037-.7A1.134,1.134,0,0,0,2.259,0,2.56,2.56,0,0,0,.165.919Z" transform="translate(5.417 5.818)" fill="#d63a3a"/>
      <path id="Trazado_722" data-name="Trazado 722" d="M.173,3.813a1.576,1.576,0,0,1,.8.5,6.684,6.684,0,0,1,.868,2.47A2.521,2.521,0,0,0,2.9,8.619c.715.362.735-.565.747-1.055a4.581,4.581,0,0,1,.436-2.65c.2-.274.594-.569.935-.351s.359.844.386,1.186a5.112,5.112,0,0,0,.581,2.73c.368.485,1.275,1.164,1.635.307a6.468,6.468,0,0,0,.027-3.041,7.74,7.74,0,0,1-.071-1.628c.037-.342.122-.952.478-1.144.528-.285.946.5,1.326.738.644.4.814-.52.883-.993a1.969,1.969,0,0,0-.231-1.492A2.767,2.767,0,0,0,8.99.389C7.338-.463,5.425.22,3.942,1.139A8.565,8.565,0,0,1,1.288,2.4c-.329.073-.864.032-1.125.288C.023,2.828-.124,3.773.173,3.813Z" transform="translate(14.907 2.12)" fill="#e6c851"/>
      <path id="Trazado_723" data-name="Trazado 723" d="M.139,1.479a1.052,1.052,0,0,0,.677.343,2.826,2.826,0,0,0,1.271-.07,1.305,1.305,0,0,0,.552-.289A.638.638,0,0,0,2.843.9C2.728.331,1.529-.035,1.023,0,.4.049-.3.894.139,1.479Z" transform="translate(14.408 1.77)" fill="#d63a3a"/>
    </g>
  </g>
</svg>
