<svg xmlns="http://www.w3.org/2000/svg" xmlns:xlink="http://www.w3.org/1999/xlink" width="29" height="26" viewBox="0 0 29 26">
  <defs>
    <clipPath id="clip-path">
      <rect id="Rectángulo_178" data-name="Rectángulo 178" width="29" height="26" fill="#fff"/>
    </clipPath>
  </defs>
  <g id="saludable" clip-path="url(#clip-path)">
    <g id="Grupo_395" data-name="Grupo 395" transform="translate(-0.122 0.147)">
      <g id="Grupo_393" data-name="Grupo 393" transform="translate(0 16.764) rotate(-50)">
        <g id="Grupo_242" data-name="Grupo 242" transform="translate(0 0)">
          <g id="Grupo_239" data-name="Grupo 239" transform="translate(3.474 0.065)">
            <path id="Trazado_507" data-name="Trazado 507" d="M.506,0S4.542,2.066,3.217,7.652C3.217,7.652-1.526,3.98.506,0Z" transform="translate(0 0)" fill="#5a8a17"/>
            <path id="Trazado_508" data-name="Trazado 508" d="M2.73,7.64C4.046,2.063.017,0,.017,0S.006.024,0,.035Z" transform="translate(0.49 0)" fill="#9bb620"/>
          </g>
          <g id="Grupo_240" data-name="Grupo 240" transform="translate(6.308 0)">
            <path id="Trazado_509" data-name="Trazado 509" d="M2.615,0S4.732,4.02.389,7.713C.389,7.713-1.376,1.993,2.615,0Z" transform="translate(0 0)" fill="#5a8a17"/>
            <path id="Trazado_510" data-name="Trazado 510" d="M0,7.7C4.331,4.014,2.217,0,2.217,0L2.183.018Z" transform="translate(0.398 0)" fill="#9bb620"/>
          </g>
          <g id="Grupo_241" data-name="Grupo 241" transform="translate(0 2.977)">
            <path id="Trazado_511" data-name="Trazado 511" d="M0,.1S.918,4.53,6.665,4.747C6.665,4.747,4.386-.8,0,.1Z" transform="translate(0 0)" fill="#5a8a17"/>
            <path id="Trazado_512" data-name="Trazado 512" d="M6.653,4.656C.917,4.433,0,.007,0,.007L.038,0Z" transform="translate(0 0.09)" fill="#9bb620"/>
          </g>
        </g>
        <path id="Trazado_513" data-name="Trazado 513" d="M7.742,5.19c1.372,3.822,2.333,13.2.984,13.663S2.066,11.393.694,7.571.12.793,1.9.178C4.252-.631,6.369,1.367,7.742,5.19Z" transform="translate(4.075 5.746)" fill="#eb7631"/>
        <path id="Trazado_514" data-name="Trazado 514" d="M.57.178a2.147,2.147,0,0,0-.57.3A3.909,3.909,0,0,1,3,1.752c.524.524,3.415,4.173,4.2,12.874a1.541,1.541,0,0,1-1.722,1.738A2.9,2.9,0,0,1,4.1,15.627l-.367-.31c1.545,2.155,3.028,3.751,3.655,3.535,1.348-.464.388-9.84-.984-13.663S2.918-.631.57.178Z" transform="translate(5.409 5.746)" fill="#fbc486" style="mix-blend-mode: multiply;isolation: isolate"/>
        <g id="Grupo_244" data-name="Grupo 244" transform="translate(4.09 9.455)">
          <g id="Grupo_243" data-name="Grupo 243" transform="translate(0 0)">
            <path id="Trazado_515" data-name="Trazado 515" d="M0,.773A3.009,3.009,0,0,1,1.043.19,3.082,3.082,0,0,1,2.23.005l.008.023-1.111.4L.008.8Z" fill="#e35100"/>
          </g>
        </g>
        <g id="Grupo_246" data-name="Grupo 246" transform="translate(6.039 10.679)">
          <g id="Grupo_245" data-name="Grupo 245" transform="translate(0)">
            <path id="Trazado_516" data-name="Trazado 516" d="M0,.793A3.17,3.17,0,0,1,1.072.2,3.243,3.243,0,0,1,2.288,0L2.3.028,1.157.434.009.816Z" fill="#e35100"/>
          </g>
        </g>
        <g id="Grupo_248" data-name="Grupo 248" transform="translate(8.577 8.299)">
          <g id="Grupo_247" data-name="Grupo 247" transform="translate(0 0)">
            <path id="Trazado_517" data-name="Trazado 517" d="M0,.714A2.552,2.552,0,0,1,.949.162,2.623,2.623,0,0,1,2.042.01L2.05.034,1.034.4.008.738Z" fill="#e35100"/>
          </g>
        </g>
        <g id="Grupo_250" data-name="Grupo 250" transform="translate(9.071 10.523)">
          <g id="Grupo_249" data-name="Grupo 249" transform="translate(0 0)">
            <path id="Trazado_518" data-name="Trazado 518" d="M0,.9A4.027,4.027,0,0,1,1.227.249,4.129,4.129,0,0,1,2.6,0l.008.024L1.312.483.009.92Z" fill="#e35100"/>
          </g>
        </g>
        <g id="Grupo_252" data-name="Grupo 252" transform="translate(4.735 12.455)">
          <g id="Grupo_251" data-name="Grupo 251">
            <path id="Trazado_519" data-name="Trazado 519" d="M0,.765A2.946,2.946,0,0,1,1.03.186,3.023,3.023,0,0,1,2.2.006L2.212.03l-1.1.391L.008.789Z" fill="#e35100"/>
          </g>
        </g>
        <g id="Grupo_254" data-name="Grupo 254" transform="translate(8.586 12.915)">
          <g id="Grupo_253" data-name="Grupo 253">
            <path id="Trazado_520" data-name="Trazado 520" d="M0,.915A4.206,4.206,0,0,1,1.257.258,4.3,4.3,0,0,1,2.657,0l.008.024L1.341.493.009.939Z" fill="#e35100"/>
          </g>
        </g>
        <g id="Grupo_256" data-name="Grupo 256" transform="translate(6.12 15.366)">
          <g id="Grupo_255" data-name="Grupo 255" transform="translate(0 0)">
            <path id="Trazado_521" data-name="Trazado 521" d="M0,.853A3.673,3.673,0,0,1,1.165.228,3.753,3.753,0,0,1,2.472,0l.009.024L1.249.463.008.877Z" fill="#e35100"/>
          </g>
        </g>
        <g id="Grupo_258" data-name="Grupo 258" transform="translate(9.169 15.531)">
          <g id="Grupo_257" data-name="Grupo 257" transform="translate(0 0)">
            <path id="Trazado_522" data-name="Trazado 522" d="M0,.774A3.01,3.01,0,0,1,1.043.19,3.086,3.086,0,0,1,2.23.005l.008.024-1.111.4L.008.8Z" fill="#e35100"/>
          </g>
        </g>
        <g id="Grupo_260" data-name="Grupo 260" transform="translate(10.316 16.465)">
          <g id="Grupo_259" data-name="Grupo 259">
            <path id="Trazado_523" data-name="Trazado 523" d="M0,.93A4.349,4.349,0,0,1,1.279.266,4.449,4.449,0,0,1,2.7,0l.008.024L1.363.5.009.954Z" fill="#e35100"/>
          </g>
        </g>
        <g id="Grupo_262" data-name="Grupo 262" transform="translate(8.094 18.631)">
          <g id="Grupo_261" data-name="Grupo 261" transform="translate(0 0)">
            <path id="Trazado_524" data-name="Trazado 524" d="M2.429.024A3.519,3.519,0,0,1,1.291.641,3.614,3.614,0,0,1,.008.858L0,.834,1.206.405,2.421,0Z" fill="#e35100"/>
          </g>
        </g>
        <g id="Grupo_264" data-name="Grupo 264" transform="translate(10.22 19.466)">
          <g id="Grupo_263" data-name="Grupo 263" transform="translate(0 0)">
            <path id="Trazado_525" data-name="Trazado 525" d="M0,.737A2.719,2.719,0,0,1,.985.173,2.792,2.792,0,0,1,2.114.008l.008.024L1.069.408.008.76Z" fill="#e35100"/>
          </g>
        </g>
        <g id="Grupo_266" data-name="Grupo 266" transform="translate(9.784 21.153)">
          <g id="Grupo_265" data-name="Grupo 265" transform="translate(0 0)">
            <path id="Trazado_526" data-name="Trazado 526" d="M2.03.024a2.5,2.5,0,0,1-.939.548A2.569,2.569,0,0,1,.008.72L0,.7,1.007.337,2.022,0Z" fill="#e35100"/>
          </g>
        </g>
        <g id="Grupo_268" data-name="Grupo 268" transform="translate(11.934 22.42)">
          <g id="Grupo_267" data-name="Grupo 267" transform="translate(0 0)">
            <path id="Trazado_527" data-name="Trazado 527" d="M0,.538A1.375,1.375,0,0,1,.656.088a1.419,1.419,0,0,1,.8-.051L1.465.06.741.323.009.562Z" fill="#e35100"/>
          </g>
        </g>
      </g>
      <g id="Grupo_394" data-name="Grupo 394" transform="matrix(0.946, -0.326, 0.326, 0.946, 6.662, 4.398)">
        <g id="Grupo_242-2" data-name="Grupo 242" transform="translate(0 0)">
          <g id="Grupo_239-2" data-name="Grupo 239" transform="translate(3.511 0.082)">
            <path id="Trazado_507-2" data-name="Trazado 507" d="M.519,0S4.585,2.032,3.227,7.57C3.227,7.57-1.548,3.95.519,0Z" transform="translate(0 0)" fill="#5a8a17"/>
            <path id="Trazado_508-2" data-name="Trazado 508" d="M2.728,7.559C4.077,2.03.017,0,.017,0S.006.023,0,.035Z" transform="translate(0.502)" fill="#9bb620"/>
          </g>
          <g id="Grupo_240-2" data-name="Grupo 240" transform="translate(6.361)">
            <path id="Trazado_509-2" data-name="Trazado 509" d="M2.658,0S4.78,3.974.382,7.648C.382,7.648-1.378,1.988,2.658,0Z" transform="translate(0 0)" fill="#5a8a17"/>
            <path id="Trazado_510-2" data-name="Trazado 510" d="M0,7.64C4.386,3.969,2.267,0,2.267,0L2.232.018Z" transform="translate(0.391)" fill="#9bb620"/>
          </g>
          <g id="Grupo_241-2" data-name="Grupo 241" transform="translate(0 2.977)">
            <path id="Trazado_511-2" data-name="Trazado 511" d="M0,.1S.91,4.488,6.711,4.682C6.711,4.682,4.431-.8,0,.1Z" fill="#5a8a17"/>
            <path id="Trazado_512-2" data-name="Trazado 512" d="M6.7,4.589C.909,4.389,0,.007,0,.007L.039,0Z" transform="translate(0 0.093)" fill="#9bb620"/>
          </g>
        </g>
        <path id="Trazado_513-2" data-name="Trazado 513" d="M7.811,5.124c1.371,3.782,2.306,13.066.943,13.531S2.058,11.29.687,7.508.133.8,1.936.18C4.309-.63,6.439,1.342,7.811,5.124Z" transform="translate(4.089 5.699)" fill="#eb7631"/>
        <path id="Trazado_514-2" data-name="Trazado 514" d="M.577.18A2.2,2.2,0,0,0,0,.481a3.954,3.954,0,0,1,3.026,1.25c.527.517,3.432,4.122,4.193,12.739A1.553,1.553,0,0,1,5.474,16.2a2.921,2.921,0,0,1-1.387-.725l-.37-.306c1.552,2.129,3.043,3.705,3.677,3.489,1.363-.465.428-9.75-.943-13.531S2.95-.63.577.18Z" transform="translate(5.449 5.699)" fill="#fbc486" style="mix-blend-mode: multiply;isolation: isolate"/>
        <g id="Grupo_244-2" data-name="Grupo 244" transform="translate(4.102 9.376)">
          <g id="Grupo_243-2" data-name="Grupo 243" transform="translate(0 0)">
            <path id="Trazado_515-2" data-name="Trazado 515" d="M0,.773A3.082,3.082,0,0,1,1.055.192,3.176,3.176,0,0,1,2.254,0l.008.023-1.123.4L.008.8Z" fill="#e35100"/>
          </g>
        </g>
        <g id="Grupo_246-2" data-name="Grupo 246" transform="translate(6.065 10.582)">
          <g id="Grupo_245-2" data-name="Grupo 245">
            <path id="Trazado_516-2" data-name="Trazado 516" d="M0,.793A3.247,3.247,0,0,1,1.085.2,3.341,3.341,0,0,1,2.313,0l.009.023L1.169.433.009.816Z" fill="#e35100"/>
          </g>
        </g>
        <g id="Grupo_248-2" data-name="Grupo 248" transform="translate(8.637 8.216)">
          <g id="Grupo_247-2" data-name="Grupo 247" transform="translate(0 0)">
            <path id="Trazado_517-2" data-name="Trazado 517" d="M0,.714A2.612,2.612,0,0,1,.96.164a2.7,2.7,0,0,1,1.1-.155l.008.023L1.045.4.008.737Z" fill="#e35100"/>
          </g>
        </g>
        <g id="Grupo_250-2" data-name="Grupo 250" transform="translate(9.126 10.414)">
          <g id="Grupo_249-2" data-name="Grupo 249">
            <path id="Trazado_518-2" data-name="Trazado 518" d="M0,.9A4.128,4.128,0,0,1,1.241.251,4.255,4.255,0,0,1,2.626,0l.008.023L1.326.483.009.92Z" fill="#e35100"/>
          </g>
        </g>
        <g id="Grupo_252-2" data-name="Grupo 252" transform="translate(4.742 12.346)">
          <g id="Grupo_251-2" data-name="Grupo 251" transform="translate(0 0)">
            <path id="Trazado_519-2" data-name="Trazado 519" d="M0,.765A3.017,3.017,0,0,1,1.042.188,3.114,3.114,0,0,1,2.228.005l.008.023L1.126.42.008.789Z" fill="#e35100"/>
          </g>
        </g>
        <g id="Grupo_254-2" data-name="Grupo 254" transform="translate(8.627 12.786)">
          <g id="Grupo_253-2" data-name="Grupo 253">
            <path id="Trazado_520-2" data-name="Trazado 520" d="M0,.916A4.312,4.312,0,0,1,1.271.261,4.436,4.436,0,0,1,2.685,0l.008.023L1.355.493.009.94Z" fill="#e35100"/>
          </g>
        </g>
        <g id="Grupo_256-2" data-name="Grupo 256" transform="translate(6.129 15.224)">
          <g id="Grupo_255-2" data-name="Grupo 255">
            <path id="Trazado_521-2" data-name="Trazado 521" d="M0,.854A3.764,3.764,0,0,1,1.178.23,3.867,3.867,0,0,1,2.5,0l.009.023L1.262.462.008.877Z" fill="#e35100"/>
          </g>
        </g>
        <g id="Grupo_258-2" data-name="Grupo 258" transform="translate(9.207 15.377)">
          <g id="Grupo_257-2" data-name="Grupo 257" transform="translate(0 0)">
            <path id="Trazado_522-2" data-name="Trazado 522" d="M0,.774A3.083,3.083,0,0,1,1.055.192,3.18,3.18,0,0,1,2.254,0l.008.023L1.14.424.008.8Z" fill="#e35100"/>
          </g>
        </g>
        <g id="Grupo_260-2" data-name="Grupo 260" transform="translate(10.36 16.296)">
          <g id="Grupo_259-2" data-name="Grupo 259">
            <path id="Trazado_523-2" data-name="Trazado 523" d="M0,.931A4.459,4.459,0,0,1,1.293.268,4.584,4.584,0,0,1,2.73,0l.008.023L1.377.5.009.955Z" fill="#e35100"/>
          </g>
        </g>
        <g id="Grupo_262-2" data-name="Grupo 262" transform="translate(8.11 18.451)">
          <g id="Grupo_261-2" data-name="Grupo 261">
            <path id="Trazado_524-2" data-name="Trazado 524" d="M2.455.023A3.606,3.606,0,0,1,1.3.639a3.724,3.724,0,0,1-1.3.22L0,.835,1.219.406,2.447,0Z" fill="#e35100"/>
          </g>
        </g>
        <g id="Grupo_264-2" data-name="Grupo 264" transform="translate(10.253 19.272)">
          <g id="Grupo_263-2" data-name="Grupo 263">
            <path id="Trazado_525-2" data-name="Trazado 525" d="M0,.736A2.784,2.784,0,0,1,1,.175,2.876,2.876,0,0,1,2.136.008l.008.023L1.081.407.008.76Z" fill="#e35100"/>
          </g>
        </g>
        <g id="Grupo_266-2" data-name="Grupo 266" transform="translate(9.807 20.945)">
          <g id="Grupo_265-2" data-name="Grupo 265">
            <path id="Trazado_526-2" data-name="Trazado 526" d="M2.051.023A2.557,2.557,0,0,1,1.1.569,2.647,2.647,0,0,1,.008.721L0,.7,1.017.337,2.043,0Z" fill="#e35100"/>
          </g>
        </g>
        <g id="Grupo_268-2" data-name="Grupo 268" transform="translate(11.973 22.195)">
          <g id="Grupo_267-2" data-name="Grupo 267" transform="translate(0 0)">
            <path id="Trazado_527-2" data-name="Trazado 527" d="M0,.537A1.4,1.4,0,0,1,.664.089,1.46,1.46,0,0,1,1.472.035L1.48.059.749.321l-.74.24Z" fill="#e35100"/>
          </g>
        </g>
      </g>
    </g>
  </g>
</svg>
