<svg xmlns="http://www.w3.org/2000/svg" xmlns:xlink="http://www.w3.org/1999/xlink" width="29" height="26" viewBox="0 0 29 26">
  <defs>
    <clipPath id="clip-path">
      <rect id="Rectángulo_182" data-name="Rectángulo 182" width="29" height="26" transform="translate(-0.449)" fill="#ebebeb"/>
    </clipPath>
  </defs>
  <g id="sushi" transform="translate(0.449)" clip-path="url(#clip-path)">
    <g id="sushi-2" data-name="sushi" transform="translate(1.62 0)">
      <path id="Trazado_816" data-name="Trazado 816" d="M163.188,90v6.145c0,2.529-2.727,4.57-6.094,4.57S151,98.673,151,96.145V90Z" transform="translate(-144.145 -85.43)" fill="#57555c"/>
      <path id="Trazado_817" data-name="Trazado 817" d="M277.094,90v6.145c0,2.529-2.727,4.57-6.094,4.57V90Z" transform="translate(-258.051 -85.43)" fill="#3c3a41"/>
      <path id="Trazado_818" data-name="Trazado 818" d="M163.188,4.57c0,2.529-2.727,4.57-6.094,4.57S151,7.1,151,4.57,153.727,0,157.094,0,163.188,2.041,163.188,4.57Z" transform="translate(-144.145)" fill="#efe6de"/>
      <path id="Trazado_819" data-name="Trazado 819" d="M277.094,4.57c0,2.529-2.727,4.57-6.094,4.57V0C274.367,0,277.094,2.041,277.094,4.57Z" transform="translate(-258.051)" fill="#dfccbf"/>
      <path id="Trazado_820" data-name="Trazado 820" d="M217.094,61.523c0,.838-1.371,1.523-3.047,1.523S211,62.361,211,61.523,212.371,60,214.047,60,217.094,60.686,217.094,61.523Z" transform="translate(-201.098 -56.953)" fill="#fc4629"/>
      <path id="Trazado_821" data-name="Trazado 821" d="M274.047,61.523c0,.838-1.371,1.523-3.047,1.523V60C272.676,60,274.047,60.686,274.047,61.523Z" transform="translate(-258.051 -56.953)" fill="#ff2615"/>
      <path id="Trazado_822" data-name="Trazado 822" d="M28.188,301v6.145c0,2.529-2.727,4.57-6.094,4.57S16,309.673,16,307.145V301Z" transform="translate(-16 -285.715)" fill="#57555c"/>
      <path id="Trazado_823" data-name="Trazado 823" d="M142.094,301v6.145c0,2.529-2.727,4.57-6.094,4.57V301Z" transform="translate(-129.906 -285.715)" fill="#3c3a41"/>
      <path id="Trazado_824" data-name="Trazado 824" d="M28.188,215.57c0,2.529-2.727,4.57-6.094,4.57S16,218.1,16,215.57,18.727,211,22.094,211,28.188,213.041,28.188,215.57Z" transform="translate(-16 -200.285)" fill="#efe6de"/>
      <path id="Trazado_825" data-name="Trazado 825" d="M142.094,215.57c0,2.529-2.727,4.57-6.094,4.57V211C139.367,211,142.094,213.041,142.094,215.57Z" transform="translate(-129.906 -200.285)" fill="#dfccbf"/>
      <path id="Trazado_826" data-name="Trazado 826" d="M82.094,272.523c0,.838-1.371,1.523-3.047,1.523S76,273.361,76,272.523,77.371,271,79.047,271,82.094,271.686,82.094,272.523Z" transform="translate(-72.953 -257.238)" fill="#fc4629"/>
      <path id="Trazado_827" data-name="Trazado 827" d="M139.047,272.523c0,.838-1.371,1.523-3.047,1.523V271C137.676,271,139.047,271.686,139.047,272.523Z" transform="translate(-129.906 -257.238)" fill="#ff2615"/>
      <path id="Trazado_828" data-name="Trazado 828" d="M268.188,301v6.145c0,2.529-2.727,4.57-6.094,4.57S256,309.673,256,307.145V301Z" transform="translate(-243.812 -285.715)" fill="#57555c"/>
      <path id="Trazado_829" data-name="Trazado 829" d="M382.094,301v6.145c0,2.529-2.727,4.57-6.094,4.57V301Z" transform="translate(-357.719 -285.715)" fill="#3c3a41"/>
      <path id="Trazado_830" data-name="Trazado 830" d="M268.188,215.57c0,2.529-2.727,4.57-6.094,4.57S256,218.1,256,215.57s2.727-4.57,6.094-4.57S268.188,213.041,268.188,215.57Z" transform="translate(-243.812 -200.285)" fill="#efe6de"/>
      <path id="Trazado_831" data-name="Trazado 831" d="M382.094,215.57c0,2.529-2.727,4.57-6.094,4.57V211C379.367,211,382.094,213.041,382.094,215.57Z" transform="translate(-357.719 -200.285)" fill="#dfccbf"/>
      <path id="Trazado_832" data-name="Trazado 832" d="M322.094,272.523c0,.838-1.371,1.523-3.047,1.523S316,273.361,316,272.523,317.371,271,319.047,271,322.094,271.686,322.094,272.523Z" transform="translate(-300.766 -257.238)" fill="#fc4629"/>
      <path id="Trazado_833" data-name="Trazado 833" d="M379.047,272.523c0,.838-1.371,1.523-3.047,1.523V271C377.676,271,379.047,271.686,379.047,272.523Z" transform="translate(-357.719 -257.238)" fill="#ff2615"/>
    </g>
  </g>
</svg>
