<svg xmlns="http://www.w3.org/2000/svg" width="95.793" height="107.768" viewBox="0 0 95.793 107.768">
  <g id="bolso" transform="translate(-4 -0.5)">
    <path id="Trazado_1589" data-name="Trazado 1589" d="M58.08,17.606A1.709,1.709,0,0,1,56.37,15.9a11.974,11.974,0,0,0-23.948,0A1.711,1.711,0,1,1,29,15.9a15.4,15.4,0,1,1,30.791,0A1.709,1.709,0,0,1,58.08,17.606Z" transform="translate(17.765)" fill="#545c66"/>
    <path id="Trazado_1590" data-name="Trazado 1590" d="M30.711,18.764A1.709,1.709,0,0,1,29,17.053V10.211a1.711,1.711,0,1,1,3.421,0v6.842A1.709,1.709,0,0,1,30.711,18.764Z" transform="translate(17.765 5.685)" fill="#545c66"/>
    <path id="Trazado_1591" data-name="Trazado 1591" d="M46.711,18.764A1.709,1.709,0,0,1,45,17.053V10.211a1.711,1.711,0,1,1,3.421,0v6.842A1.709,1.709,0,0,1,46.711,18.764Z" transform="translate(29.134 5.685)" fill="#545c66"/>
    <path id="Trazado_1592" data-name="Trazado 1592" d="M68.527,67.053H48L58.264,58.5Z" transform="translate(31.266 41.215)" fill="#e29f33"/>
    <path id="Trazado_1593" data-name="Trazado 1593" d="M64.264,13.5V99.03L54,90.477V13.5Z" transform="translate(35.53 9.238)" fill="#b73000"/>
    <path id="Trazado_1594" data-name="Trazado 1594" d="M58.264,13.5V90.477L48,99.03V13.5Z" transform="translate(31.266 9.238)" fill="#cb6120"/>
    <path id="Trazado_1595" data-name="Trazado 1595" d="M36.518,57.976a3.419,3.419,0,0,0,3.421-3.421V51.133H24.527v3.421a3.42,3.42,0,0,0,3.421,3.421h1.711V86.2a2.574,2.574,0,0,0,5.149,0V57.976ZM79.266,13.5V99.03H4V13.5H79.266ZM60.45,66.528V49.405A11.965,11.965,0,0,0,48.476,37.431V86.2a2.566,2.566,0,0,0,5.132,0V66.528Z" transform="translate(0 9.238)" fill="#f1ac00"/>
    <path id="Trazado_1596" data-name="Trazado 1596" d="M46.08,17.606A1.709,1.709,0,0,1,44.37,15.9a11.974,11.974,0,1,0-23.948,0A1.711,1.711,0,0,1,17,15.9a15.4,15.4,0,1,1,30.791,0A1.709,1.709,0,0,1,46.08,17.606Z" transform="translate(9.238)" fill="#656d78"/>
    <path id="Trazado_1597" data-name="Trazado 1597" d="M18.711,30.738A1.709,1.709,0,0,1,17,29.027V10.211a1.711,1.711,0,1,1,3.421,0V29.027A1.709,1.709,0,0,1,18.711,30.738Z" transform="translate(9.238 5.685)" fill="#656d78"/>
    <path id="Trazado_1598" data-name="Trazado 1598" d="M34.711,30.738A1.709,1.709,0,0,1,33,29.027V10.211a1.711,1.711,0,0,1,3.421,0V29.027A1.709,1.709,0,0,1,34.711,30.738Z" transform="translate(20.607 5.685)" fill="#656d78"/>
    <g id="Grupo_904" data-name="Grupo 904" transform="translate(22.823 44.97)">
      <path id="Trazado_1599" data-name="Trazado 1599" d="M16.715,47.034A1.709,1.709,0,0,1,15,45.324V28.208a1.711,1.711,0,1,1,3.421,0V45.324A1.709,1.709,0,0,1,16.715,47.034Z" transform="translate(-15.004 -26.497)" fill="#fff"/>
      <path id="Trazado_1600" data-name="Trazado 1600" d="M25.718,47.034a1.709,1.709,0,0,1-1.711-1.711V28.208a1.711,1.711,0,1,1,3.421,0V45.324A1.709,1.709,0,0,1,25.718,47.034Z" transform="translate(-8.607 -26.497)" fill="#fff"/>
      <path id="Trazado_1601" data-name="Trazado 1601" d="M19.715,43.61A1.709,1.709,0,0,1,18,41.9V28.208a1.711,1.711,0,0,1,3.421,0V41.9A1.709,1.709,0,0,1,19.715,43.61Z" transform="translate(-12.872 -26.497)" fill="#fff"/>
      <path id="Trazado_1602" data-name="Trazado 1602" d="M22.718,43.61A1.709,1.709,0,0,1,21.007,41.9V28.208a1.711,1.711,0,0,1,3.421,0V41.9A1.709,1.709,0,0,1,22.718,43.61Z" transform="translate(-10.738 -26.497)" fill="#fff"/>
      <path id="Trazado_1603" data-name="Trazado 1603" d="M25.36,39H18.5V68.08a3.43,3.43,0,0,0,6.86,0Z" transform="translate(-12.52 -17.612)" fill="#fff"/>
      <path id="Trazado_1604" data-name="Trazado 1604" d="M35.842,44H29V64.527a3.421,3.421,0,1,0,6.842,0Z" transform="translate(-5.059 -14.059)" fill="#fff"/>
    </g>
    <path id="Trazado_1605" data-name="Trazado 1605" d="M32.123,34.5H16.711A1.709,1.709,0,0,0,15,36.211v3.421a5.138,5.138,0,0,0,5.132,5.132H28.7a5.138,5.138,0,0,0,5.132-5.132V36.211A1.709,1.709,0,0,0,32.123,34.5Z" transform="translate(7.817 24.16)" fill="#fff"/>
    <path id="Trazado_1606" data-name="Trazado 1606" d="M30.711,26.49A1.724,1.724,0,0,0,29,28.218V57.3a1.709,1.709,0,0,0,1.711,1.711H42.685A1.709,1.709,0,0,0,44.4,57.3V40.175A13.7,13.7,0,0,0,30.711,26.49Z" transform="translate(17.765 18.468)" fill="#fff"/>
  </g>
</svg>
