<svg xmlns="http://www.w3.org/2000/svg" xmlns:xlink="http://www.w3.org/1999/xlink" width="29" height="26" viewBox="0 0 29 26">
  <defs>
    <clipPath id="clip-path">
      <rect id="Rectángulo_188" data-name="Rectángulo 188" width="29" height="26" fill="#ebebeb"/>
    </clipPath>
    <clipPath id="clip-path-2">
      <path id="Trazado_661" data-name="Trazado 661" d="M22.5,4.7,2.826,8.543A2.371,2.371,0,0,1,.045,6.67h0A2.371,2.371,0,0,1,1.917,3.888L21.6.044a2.371,2.371,0,0,1,2.782,1.873h0A2.371,2.371,0,0,1,22.5,4.7Z" fill="none"/>
    </clipPath>
  </defs>
  <g id="burguer" clip-path="url(#clip-path)">
    <g id="Grupo_409" data-name="Grupo 409" transform="translate(1.702 3.253)">
      <path id="Trazado_659" data-name="Trazado 659" d="M21.822,3.625,3.626,7.18A3.091,3.091,0,0,1,0,4.739H0L24.263,0h0A3.09,3.09,0,0,1,21.822,3.625Z" transform="translate(1.586 13.102)" fill="#e39b44"/>
      <path id="Trazado_660" data-name="Trazado 660" d="M22.5,4.7,2.826,8.543A2.371,2.371,0,0,1,.045,6.67h0A2.371,2.371,0,0,1,1.917,3.888L21.6.044a2.371,2.371,0,0,1,2.782,1.873h0A2.371,2.371,0,0,1,22.5,4.7Z" transform="translate(1.129 8.874)" fill="#bd5819"/>
      <g id="Grupo_318" data-name="Grupo 318" transform="translate(1.129 8.874)">
        <g id="Grupo_317" data-name="Grupo 317" clip-path="url(#clip-path-2)">
          <g id="Grupo_316" data-name="Grupo 316" transform="translate(-0.626 -0.551)">
            <rect id="Rectángulo_140" data-name="Rectángulo 140" width="1.725" height="8.57" transform="translate(0 4.658) rotate(-43.433)" fill="#73350f"/>
            <rect id="Rectángulo_141" data-name="Rectángulo 141" width="1.725" height="8.57" transform="matrix(0.726, -0.687, 0.687, 0.726, 4.444, 3.79)" fill="#73350f"/>
            <rect id="Rectángulo_142" data-name="Rectángulo 142" width="1.725" height="8.57" transform="matrix(0.726, -0.687, 0.687, 0.726, 8.887, 2.922)" fill="#73350f"/>
            <rect id="Rectángulo_143" data-name="Rectángulo 143" width="1.725" height="8.57" transform="matrix(0.726, -0.687, 0.687, 0.726, 13.33, 2.054)" fill="#73350f"/>
            <rect id="Rectángulo_144" data-name="Rectángulo 144" width="1.725" height="8.57" transform="matrix(0.726, -0.688, 0.688, 0.726, 17.774, 1.186)" fill="#73350f"/>
          </g>
        </g>
      </g>
      <path id="Trazado_662" data-name="Trazado 662" d="M0,1.6,8.392,0S4.517,2.772,4.341,3.476,1.584,1.775,0,1.6Z" transform="translate(3.448 12.372)" fill="#e6c82e"/>
      <path id="Trazado_663" data-name="Trazado 663" d="M0,1.584,8.206,0S4.616,2.706,4.44,3.41,1.584,1.76,0,1.584Z" transform="translate(13.908 10.37)" fill="#e6c82e"/>
      <path id="Trazado_664" data-name="Trazado 664" d="M24.377,1.917A2.371,2.371,0,0,0,21.6.044L1.917,3.888A2.371,2.371,0,0,0,.045,6.67c.006.032.02.06.028.092L24.386,2.013C24.381,1.981,24.384,1.95,24.377,1.917Z" transform="translate(1.129 8.874)" fill="#e6dfba" style="mix-blend-mode: multiply;isolation: isolate"/>
      <path id="Trazado_665" data-name="Trazado 665" d="M24.392,9.911a1.575,1.575,0,0,0,1.15-2.151A13.109,13.109,0,0,0,10.819.261,13.106,13.106,0,0,0,0,12.8,1.56,1.56,0,0,0,1.872,14.31Z" fill="#e39b44"/>
      <g id="Grupo_319" data-name="Grupo 319" transform="translate(2.113 1.788)">
        <path id="Trazado_666" data-name="Trazado 666" d="M.434.067C.706-.027.956-.021.992.081S.835.343.562.438.04.526,0,.424.161.162.434.067Z" transform="translate(8.643 3.909)" fill="#fff6f8"/>
        <path id="Trazado_667" data-name="Trazado 667" d="M.564.1c.265.115.445.289.4.388S.673.57.408.455-.037.166.006.067.3-.02.564.1Z" transform="translate(12.692)" fill="#fff6f8"/>
        <path id="Trazado_668" data-name="Trazado 668" d="M.54.238c.213.2.325.418.252.5S.487.722.274.527-.051.108.022.028.327.043.54.238Z" transform="translate(14.144 5.43)" fill="#fff6f8"/>
        <path id="Trazado_669" data-name="Trazado 669" d="M.54.238c.213.2.325.419.252.5S.487.722.274.526-.051.108.022.028.327.042.54.238Z" transform="translate(19.451 4.438)" fill="#fff6f8"/>
        <path id="Trazado_670" data-name="Trazado 670" d="M.508.552C.334.782.123.916.037.851S.021.546.2.316.58-.049.666.017.682.322.508.552Z" transform="translate(2.954 6.784)" fill="#ffdccb"/>
        <path id="Trazado_671" data-name="Trazado 671" d="M.508.552C.334.782.123.916.037.851S.021.546.2.316.58-.049.667.017.682.322.508.552Z" transform="translate(16.037 2.447)" fill="#fff6f8"/>
        <path id="Trazado_672" data-name="Trazado 672" d="M.508.552C.334.782.123.916.037.851S.021.546.2.316.58-.049.667.017.682.321.508.552Z" transform="translate(17.541 5.256)" fill="#fff6f8"/>
        <path id="Trazado_673" data-name="Trazado 673" d="M.54.238c.213.2.325.418.252.5S.487.722.274.527-.051.108.022.028.327.043.54.238Z" transform="translate(2.985 3.693)" fill="#ffdccb"/>
        <path id="Trazado_674" data-name="Trazado 674" d="M.54.238c.213.2.325.418.252.5S.487.722.274.526-.051.108.022.028.327.042.54.238Z" transform="translate(5.871 5.203)" fill="#ffdccb"/>
        <path id="Trazado_675" data-name="Trazado 675" d="M.564.1c.265.115.445.289.4.388S.673.57.408.455-.037.166.006.067.3-.02.564.1Z" transform="translate(8.331 0.933)" fill="#fff6f8"/>
        <path id="Trazado_676" data-name="Trazado 676" d="M.564.1c.265.115.445.289.4.388S.673.57.408.455-.037.166.006.067.3-.02.564.1Z" transform="translate(4.962 1.137)" fill="#fff6f8"/>
        <path id="Trazado_677" data-name="Trazado 677" d="M.564.463C.3.587.054.609.007.511S.135.233.4.109.9-.036.952.061.824.339.564.463Z" transform="translate(12.549 2.897)" fill="#fff6f8"/>
        <path id="Trazado_678" data-name="Trazado 678" d="M.564.463C.3.587.054.609.008.511S.134.233.4.109.9-.036.951.061.824.339.564.463Z" transform="translate(6.607 8.624)" fill="#ffdccb"/>
        <path id="Trazado_679" data-name="Trazado 679" d="M.564.463C.3.587.054.608.007.511S.135.233.4.109.9-.036.952.061.824.339.564.463Z" transform="translate(0 6.95)" fill="#ffdccb"/>
        <path id="Trazado_680" data-name="Trazado 680" d="M.564.463C.3.587.054.609.007.511S.135.233.4.109.9-.036.952.061.824.339.564.463Z" transform="translate(10.752 5.546)" fill="#fff6f8"/>
        <path id="Trazado_681" data-name="Trazado 681" d="M.564.463C.3.587.054.608.007.511S.135.233.4.109.9-.036.952.061.824.339.564.463Z" transform="translate(10.05 8.178)" fill="#ffdccb"/>
        <path id="Trazado_682" data-name="Trazado 682" d="M.564.463C.3.587.054.609.008.511S.134.233.4.109.9-.036.951.061.824.339.564.463Z" transform="translate(1.499 9.81)" fill="#ffdccb"/>
      </g>
    </g>
  </g>
</svg>
