<svg xmlns="http://www.w3.org/2000/svg" width="130.869" height="133.016" viewBox="0 0 130.869 133.016">
  <g id="entrega-de-comida" transform="translate(-1.006 -0.497)">
    <path id="Trazado_1043" data-name="Trazado 1043" d="M7.34,40.5v8.445H5.228a4.222,4.222,0,1,1,0-8.445Z" transform="translate(0 44.453)" fill="#ed5565"/>
    <path id="Trazado_1044" data-name="Trazado 1044" d="M10.006,55.5H26.9a8.445,8.445,0,1,1-16.889,0Z" transform="translate(10.001 61.121)" fill="#e6e9ed"/>
    <path id="Trazado_1045" data-name="Trazado 1045" d="M31.34,55.5h8.445a16.889,16.889,0,0,1-33.779,0h8.445a8.445,8.445,0,1,0,16.889,0Z" transform="translate(5.556 61.121)" fill="#545c66"/>
    <path id="Trazado_1046" data-name="Trazado 1046" d="M54.451,55.514a8.445,8.445,0,1,0,16.889,0v-.021h8.445v.021a16.889,16.889,0,1,1-33.779,0v-.021h8.445Z" transform="translate(50.003 61.11)" fill="#545c66"/>
    <path id="Trazado_1047" data-name="Trazado 1047" d="M56.227,14.493A2.117,2.117,0,0,1,58.338,16.6V29.292A2.117,2.117,0,0,1,56.227,31.4H54.116a2.117,2.117,0,0,1-2.111-2.111V16.6a2.117,2.117,0,0,1,2.111-2.111Z" transform="translate(56.668 15.552)" fill="#f1ac00"/>
    <path id="Trazado_1048" data-name="Trazado 1048" d="M58.676,31.5a2.117,2.117,0,0,1,2.111,2.111v4.2a2.117,2.117,0,0,1-2.111,2.111H10.117a2.117,2.117,0,0,1-2.111-2.111v-4.2A2.117,2.117,0,0,1,10.117,31.5Z" transform="translate(7.778 34.453)" fill="#656d78"/>
    <path id="Trazado_1049" data-name="Trazado 1049" d="M7.117,63.283a2.117,2.117,0,0,1-2.111-2.111V50.612c0-1.161.475-2.111,1.056-2.111h35.89a3.307,3.307,0,0,1,1.056,2.111v10.56A2.117,2.117,0,0,1,40.9,63.283Z" transform="translate(4.445 53.341)" fill="#f1ac00"/>
    <path id="Trazado_1050" data-name="Trazado 1050" d="M39.228,16.5a4.222,4.222,0,1,1-4.222,4.222A4.223,4.223,0,0,1,39.228,16.5Z" transform="translate(37.78 17.785)" fill="#656d78"/>
    <path id="Trazado_1051" data-name="Trazado 1051" d="M57.506,66.594H49.062l-5.806.021A21.1,21.1,0,0,0,63.882,45.5,21.074,21.074,0,0,1,84.928,66.594H57.506Z" transform="translate(46.947 50.009)" fill="#cb6120"/>
    <path id="Trazado_1052" data-name="Trazado 1052" d="M52.206,28.292a4.222,4.222,0,1,0,0-8.445H40.426a10.578,10.578,0,0,1,9.69-6.334v-.021H64.871L66.985,15.6v16.91l-2.113,2.111H50.116a10.554,10.554,0,0,1-9.69-6.333Z" transform="translate(43.802 14.441)" fill="#cb6120"/>
    <path id="Trazado_1053" data-name="Trazado 1053" d="M44.226,16.5h11.78a4.222,4.222,0,0,1,0,8.445h-19a4.222,4.222,0,1,0,0-8.445Z" transform="translate(40.002 17.785)" fill="#545c66"/>
    <path id="Trazado_1054" data-name="Trazado 1054" d="M86.382,69.949A21.1,21.1,0,0,1,65.756,91.06h-32.2A10.557,10.557,0,0,1,23.005,80.5H65.271A10.56,10.56,0,0,0,75.826,69.949h-.042L69.472,23.5H80.049Z" transform="translate(24.445 25.564)" fill="#f1ac00"/>
    <path id="Trazado_1055" data-name="Trazado 1055" d="M58.451,63.959a8.441,8.441,0,0,1-8.445-8.445v-.021H66.9v.021A8.444,8.444,0,0,1,58.451,63.959Z" transform="translate(54.447 61.11)" fill="#e6e9ed"/>
    <path id="Trazado_1056" data-name="Trazado 1056" d="M65.232,37.6V67.182H6.117L4.006,65.066V43.959a8.441,8.441,0,0,1,8.445-8.445v-.021H63.119Z" transform="translate(3.334 38.886)" fill="#cb6120"/>
    <ellipse id="Elipse_66" data-name="Elipse 66" cx="3.5" cy="7.5" rx="3.5" ry="7.5" transform="translate(6.483 94.564)" fill="#cb6120"/>
    <ellipse id="Elipse_67" data-name="Elipse 67" cy="4" ry="4" transform="translate(67.483 71.564)" fill="#a0d468"/>
    <path id="Trazado_1057" data-name="Trazado 1057" d="M53.116,34.623a2.109,2.109,0,0,1-2.111-2.111V15.605a2.111,2.111,0,0,1,4.222,0V32.511A2.109,2.109,0,0,1,53.116,34.623Z" transform="translate(55.557 14.442)" fill="#cb6120"/>
    <path id="Trazado_1058" data-name="Trazado 1058" d="M37,13.164a2.109,2.109,0,0,1-2.111-2.111,6.334,6.334,0,1,0-12.667,0,2.111,2.111,0,1,1-4.222,0,10.556,10.556,0,1,1,21.112,0A2.109,2.109,0,0,1,37,13.164Z" transform="translate(18.883 0)" fill="#ccd1d9"/>
    <path id="Trazado_1059" data-name="Trazado 1059" d="M20.111,17.164A2.111,2.111,0,0,1,18,15.053V6.608a2.111,2.111,0,1,1,4.222,0v8.445A2.111,2.111,0,0,1,20.111,17.164Z" transform="translate(18.883 4.445)" fill="#ccd1d9"/>
    <path id="Trazado_1060" data-name="Trazado 1060" d="M28.111,17.164A2.111,2.111,0,0,1,26,15.053V6.608a2.111,2.111,0,0,1,4.222,0v8.445A2.111,2.111,0,0,1,28.111,17.164Z" transform="translate(27.773 4.445)" fill="#ccd1d9"/>
    <path id="Trazado_1061" data-name="Trazado 1061" d="M33,13.164a2.109,2.109,0,0,1-2.111-2.111,6.334,6.334,0,1,0-12.667,0,2.111,2.111,0,1,1-4.222,0,10.556,10.556,0,0,1,21.112,0A2.109,2.109,0,0,1,33,13.164Z" transform="translate(14.439 0)" fill="#e6e9ed"/>
    <path id="Trazado_1062" data-name="Trazado 1062" d="M16.111,17.164A2.111,2.111,0,0,1,14,15.053V6.608a2.111,2.111,0,0,1,4.222,0v8.445A2.111,2.111,0,0,1,16.111,17.164Z" transform="translate(14.439 4.445)" fill="#e6e9ed"/>
    <path id="Trazado_1063" data-name="Trazado 1063" d="M24.111,17.164A2.111,2.111,0,0,1,22,15.053V6.608a2.111,2.111,0,0,1,4.222,0v8.445A2.111,2.111,0,0,1,24.111,17.164Z" transform="translate(23.328 4.445)" fill="#e6e9ed"/>
    <path id="Trazado_1064" data-name="Trazado 1064" d="M54.229,8.5H14.117a2.116,2.116,0,0,0-2.111,2.111V54.924a2.119,2.119,0,0,0,2.111,2.111H54.229a2.119,2.119,0,0,0,2.111-2.111V10.61A2.116,2.116,0,0,0,54.229,8.5Z" transform="translate(12.223 8.892)" fill="#f7c292"/>
    <path id="Trazado_1065" data-name="Trazado 1065" d="M50.229,8.5H10.117A2.116,2.116,0,0,0,8.006,10.61V54.924a2.119,2.119,0,0,0,2.111,2.111H50.229a2.119,2.119,0,0,0,2.111-2.111V10.61A2.116,2.116,0,0,0,50.229,8.5Z" transform="translate(7.778 8.892)" fill="#ffd2a6"/>
    <g id="Grupo_508" data-name="Grupo 508" transform="translate(24.231 27.938)">
      <path id="Trazado_1066" data-name="Trazado 1066" d="M16.618,39.613A2.109,2.109,0,0,1,14.507,37.5V20.612a2.111,2.111,0,0,1,4.222,0V37.5A2.109,2.109,0,0,1,16.618,39.613Z" transform="translate(-9.229 -7.932)" fill="#545c66"/>
      <path id="Trazado_1067" data-name="Trazado 1067" d="M14.118,26.168a2.109,2.109,0,0,1-2.111-2.111V15.608a2.111,2.111,0,0,1,4.222,0v8.449A2.109,2.109,0,0,1,14.118,26.168Z" transform="translate(-12.007 -13.493)" fill="#545c66"/>
      <path id="Trazado_1068" data-name="Trazado 1068" d="M19.119,26.168a2.109,2.109,0,0,1-2.111-2.111V15.608a2.111,2.111,0,0,1,4.222,0v8.449A2.109,2.109,0,0,1,19.119,26.168Z" transform="translate(-6.45 -13.493)" fill="#545c66"/>
      <path id="Trazado_1069" data-name="Trazado 1069" d="M22.118,45.175a2.109,2.109,0,0,1-2.111-2.111V15.606a2.111,2.111,0,1,1,4.222,0V43.064A2.109,2.109,0,0,1,22.118,45.175Z" transform="translate(-3.118 -13.495)" fill="#545c66"/>
    </g>
    <path id="Trazado_1070" data-name="Trazado 1070" d="M22.112,13.495A2.109,2.109,0,0,0,20,15.606V30.384h.013A2.111,2.111,0,0,0,22.125,32.5h6.334a2.109,2.109,0,0,0,2.111-2.111V21.952A8.467,8.467,0,0,0,22.112,13.495Z" transform="translate(21.107 14.443)" fill="#656d78"/>
    <path id="Trazado_1071" data-name="Trazado 1071" d="M16.617,21.937a2.109,2.109,0,0,1-2.111-2.111V15.608a2.111,2.111,0,0,1,4.222,0v4.218A2.109,2.109,0,0,1,16.617,21.937Z" transform="translate(15.001 14.445)" fill="#545c66"/>
    <path id="Trazado_1072" data-name="Trazado 1072" d="M24.677,16.5H14.119a2.109,2.109,0,0,0-2.111,2.111v2.111s0,0,0,.008a4.222,4.222,0,0,0,4.216,4.218h6.319c.008,0,.015,0,.021,0a4.231,4.231,0,0,0,4.227-4.227V18.608A2.109,2.109,0,0,0,24.677,16.5Z" transform="translate(12.223 17.779)" fill="#656d78"/>
  </g>
</svg>
