<svg id="location" xmlns="http://www.w3.org/2000/svg" width="28.317" height="25.552" viewBox="0 0 28.317 25.552">
  <path id="Trazado_765" data-name="Trazado 765" d="M28.317,217.83a14,14,0,0,1-3,8.631h0A14.141,14.141,0,0,1,0,217.83a.83.83,0,1,1,1.659,0A12.271,12.271,0,0,0,3.848,224.8c5.6-3.9,15.06-3.919,20.635-.02a12.27,12.27,0,0,0,2.175-6.953.83.83,0,1,1,1.659,0Z" transform="translate(0 -206.381)" fill="#acd5df"/>
  <path id="Trazado_766" data-name="Trazado 766" d="M270.159,217.83a14,14,0,0,1-3,8.631h0A14.079,14.079,0,0,1,256,231.933V221.867a18.27,18.27,0,0,1,10.324,2.916,12.27,12.27,0,0,0,2.175-6.953.83.83,0,1,1,1.659,0Z" transform="translate(-241.841 -206.381)" fill="#93b7c0"/>
  <path id="Trazado_767" data-name="Trazado 767" d="M121.7,33.351c0,1.9-1.316,4.739-3.911,8.449-1.883,2.693-3.736,4.836-3.814,4.926a.83.83,0,0,1-1.253,0c-.078-.09-1.931-2.233-3.814-4.926-2.6-3.71-3.911-6.552-3.911-8.449a8.351,8.351,0,1,1,16.7,0Z" transform="translate(-99.193 -25)" fill="#f1ac00"/>
  <path id="Trazado_768" data-name="Trazado 768" d="M264.351,33.351c0,1.9-1.316,4.739-3.911,8.449-1.883,2.693-3.736,4.836-3.814,4.926a.829.829,0,0,1-.627.286V25a8.361,8.361,0,0,1,8.351,8.351Z" transform="translate(-241.841 -25)" fill="#cb6120"/>
  <ellipse id="Elipse_30" data-name="Elipse 30" cx="4" cy="3.5" rx="4" ry="3.5" transform="translate(9.951 4.776)" fill="#eef4ff"/>
</svg>
