<svg xmlns="http://www.w3.org/2000/svg" xmlns:xlink="http://www.w3.org/1999/xlink" width="29" height="26" viewBox="0 0 29 26">
  <defs>
    <clipPath id="clip-path">
      <rect id="Rectángulo_179" data-name="Rectángulo 179" width="29" height="26" transform="translate(0.228)" fill="#e6e6e6"/>
    </clipPath>
  </defs>
  <g id="mexicana" transform="translate(-0.228)" clip-path="url(#clip-path)">
    <g id="taco" transform="translate(0.439 2.525)">
      <path id="Trazado_797" data-name="Trazado 797" d="M27.238,144.585v-6.363A11.573,11.573,0,0,0,15.587,126.8h0A11.573,11.573,0,0,0,3.936,138.222v3.892a2.5,2.5,0,0,0,2.519,2.471Z" transform="translate(-3.714 -123.274)" fill="#ffa733"/>
      <path id="Trazado_798" data-name="Trazado 798" d="M8.007,87.029A3.077,3.077,0,0,0,5.13,88.5a1.669,1.669,0,0,1-1.1.78,3.122,3.122,0,0,0-1.556.8,3.017,3.017,0,0,0-.929,2.491,1.577,1.577,0,0,1-.5,1.325A3.189,3.189,0,0,0,.017,96.583a3.266,3.266,0,0,0,2.9,2.881c1.987.217,7.939-7.807,7.914-9.487A3.046,3.046,0,0,0,8.007,87.029Z" transform="translate(0 -85.692)" fill="#aa6100"/>
      <path id="Trazado_799" data-name="Trazado 799" d="M51.332,87.029A3.077,3.077,0,0,0,48.455,88.5a1.669,1.669,0,0,1-1.1.78,3.131,3.131,0,0,0-1.109.45c-.634,2.017-.671,5.023,2.524,8.16,2.442-2.378,5.4-6.723,5.382-7.908A3.046,3.046,0,0,0,51.332,87.029Z" transform="translate(-43.325 -85.692)" fill="#cc7400"/>
      <ellipse id="Elipse_32" data-name="Elipse 32" cx="2.815" cy="2.76" rx="2.815" ry="2.76" transform="translate(1.016 15.791)" fill="#d80027"/>
      <path id="Trazado_800" data-name="Trazado 800" d="M22.7,349.027a2.09,2.09,0,1,0,2.7,2A2.808,2.808,0,0,0,22.7,349.027Z" transform="translate(-18.868 -333.236)" fill="#c70024"/>
      <ellipse id="Elipse_33" data-name="Elipse 33" cx="2.815" cy="2.76" rx="2.815" ry="2.76" transform="translate(1.016 12.115)" fill="#ff3f62"/>
      <path id="Trazado_801" data-name="Trazado 801" d="M18.043,285.086a2.82,2.82,0,0,0,2.535,1.56,2.79,2.79,0,0,0,2.812-2.654,2.82,2.82,0,0,0-2.535-1.56A2.79,2.79,0,0,0,18.043,285.086Z" transform="translate(-17.027 -270.317)" fill="#ff0c38"/>
      <path id="Trazado_802" data-name="Trazado 802" d="M43.457,84.285H54.684a4.187,4.187,0,0,1,.812-.874c.966-.719,2.674-.778,3.374-1.761.687-.966.16-2.557.528-3.714.353-1.111,1.722-2.119,1.722-3.348S59.75,72.351,59.4,71.24c-.367-1.157.16-2.748-.528-3.714-.7-.984-2.409-1.043-3.374-1.761s-1.486-2.317-2.649-2.7c-1.127-.374-2.525.574-3.777.574s-2.65-.949-3.777-.574c-1.162.386-1.684,1.986-2.649,2.7s-2.674.778-3.374,1.761c-.687.966-.161,2.557-.528,3.714-.353,1.111-1.722,2.119-1.722,3.348s1.369,2.237,1.722,3.348c.367,1.157-.16,2.748.528,3.714.7.984,2.409,1.043,3.374,1.761A4.186,4.186,0,0,1,43.457,84.285Z" transform="translate(-34.937 -62.973)" fill="#91dc5a"/>
      <path id="Trazado_803" data-name="Trazado 803" d="M119.984,84.284a4.187,4.187,0,0,1,.812-.874c.966-.719,2.674-.778,3.374-1.761.687-.966.161-2.557.528-3.714.353-1.111,1.722-2.119,1.722-3.348s-1.369-2.237-1.722-3.348c-.367-1.157.16-2.748-.528-3.714-.7-.984-2.409-1.043-3.374-1.761s-1.486-2.317-2.649-2.7c-1.127-.374-2.525.574-3.777.574s-2.65-.949-3.777-.574c-1.012.336-1.539,1.593-2.295,2.386a6.777,6.777,0,0,1-1.057,3.314c-1.445,1.779-1.462,5.2.586,6.82.038.031,1.79,5.734,2.7,8.7Z" transform="translate(-100.237 -62.972)" fill="#b6e892"/>
      <path id="Trazado_804" data-name="Trazado 804" d="M63.122,126.8h0a11.573,11.573,0,0,0-11.651,11.425v4.3c-.033.57-.353,2.063-2.78,2.063H71.058a3.68,3.68,0,0,0,3.715-3.643v-2.72A11.573,11.573,0,0,0,63.122,126.8Z" transform="translate(-45.95 -123.275)" fill="#ffc477"/>
      <g id="Grupo_396" data-name="Grupo 396" transform="translate(2.741 3.523)">
        <path id="Trazado_805" data-name="Trazado 805" d="M58.155,144.585c2.428,0,2.747-1.493,2.78-2.063v-4.3a11.457,11.457,0,0,1,6.919-10.434,11.736,11.736,0,0,0-4.732-.991h0a11.573,11.573,0,0,0-11.651,11.425v4.3c-.033.57-.353,2.063-2.78,2.063h9.464Z" transform="translate(-48.691 -126.797)" fill="#ffb655"/>
        <ellipse id="Elipse_34" data-name="Elipse 34" cx="0.87" cy="0.853" rx="0.87" ry="0.853" transform="translate(15.784 9.416)" fill="#ffb655"/>
        <ellipse id="Elipse_35" data-name="Elipse 35" cx="0.87" cy="0.853" rx="0.87" ry="0.853" transform="translate(21.073 8.041)" fill="#ffb655"/>
        <ellipse id="Elipse_36" data-name="Elipse 36" cx="0.87" cy="0.853" rx="0.87" ry="0.853" transform="translate(19.551 12.025)" fill="#ffb655"/>
        <ellipse id="Elipse_37" data-name="Elipse 37" cx="0.435" cy="0.427" rx="0.435" ry="0.427" transform="translate(19.116 9.84)" fill="#ffb655"/>
        <ellipse id="Elipse_38" data-name="Elipse 38" cx="0.435" cy="0.427" rx="0.435" ry="0.427" transform="translate(16.654 13.305)" fill="#ffb655"/>
        <ellipse id="Elipse_39" data-name="Elipse 39" cx="0.435" cy="0.427" rx="0.435" ry="0.427" transform="translate(17.959 6.706)" fill="#ffb655"/>
        <ellipse id="Elipse_40" data-name="Elipse 40" cx="0.435" cy="0.427" rx="0.435" ry="0.427" transform="translate(23.236 11.841)" fill="#ffb655"/>
      </g>
    </g>
  </g>
</svg>
