<svg xmlns="http://www.w3.org/2000/svg" xmlns:xlink="http://www.w3.org/1999/xlink" width="29" height="26" viewBox="0 0 29 26">
  <defs>
    <clipPath id="clip-path">
      <rect id="Rectángulo_187" data-name="Rectángulo 187" width="29" height="26" transform="translate(0.38)" fill="#ebebeb"/>
    </clipPath>
  </defs>
  <g id="parrilla" transform="translate(-0.38)" clip-path="url(#clip-path)">
    <g id="Grupo_408" data-name="Grupo 408" transform="translate(14.598 -1.129) rotate(60)">
      <g id="Grupo_327" data-name="Grupo 327" transform="translate(0)">
        <path id="Trazado_710" data-name="Trazado 710" d="M.469,7.505A2.5,2.5,0,0,1,1.9,3.624c2.313-.58,4.212-1.131,5.621-1.562C11.634.8,13.094.1,15.811.024c2.34-.064,5.467-.15,7.338,1.87,2.86,3.087,1.685,9.9-2,12.144A11.691,11.691,0,0,1,12.877,15.3,19.707,19.707,0,0,1,.957,8.142Q.7,7.822.469,7.505Z" fill="#e6dfba" style="mix-blend-mode: multiply;isolation: isolate"/>
        <path id="Trazado_711" data-name="Trazado 711" d="M.389,6.337a2.1,2.1,0,0,1,1.217-3.25c1.946-.494,3.544-.961,4.73-1.327C9.8.692,11.026.1,13.309.026c1.967-.062,4.6-.146,6.16,1.537,2.392,2.571,1.38,8.276-1.722,10.161a9.907,9.907,0,0,1-6.96,1.09A16.4,16.4,0,0,1,.8,6.868Q.578,6.6.389,6.337Z" transform="translate(2.169 1.233)" fill="#f0462f"/>
      </g>
      <g id="Grupo_328" data-name="Grupo 328" transform="translate(3.113 1.234)">
        <path id="Trazado_712" data-name="Trazado 712" d="M5,7.822c1.432-2.693,2.15-2.749,3.38-5.428.246-.535.629-1.372.915-2.2A14.248,14.248,0,0,0,6.108.016a4.461,4.461,0,0,1-.129.6C5.061,3.9,1.944,8.591,0,11.882a15.871,15.871,0,0,0,2.8.84C3.482,11.747,3.694,10.277,5,7.822Z" transform="translate(6.569 0)" fill="#d42d2a"/>
        <path id="Trazado_713" data-name="Trazado 713" d="M0,4.932A17.95,17.95,0,0,0,1.374,6.4a18.1,18.1,0,0,1,.7-2.135C2.959,2.066,3.529,1.923,4.236,0c-.627.185-1.327.384-2.1.593A24.4,24.4,0,0,1,0,4.932Z" transform="translate(0 2.107)" fill="#d42d2a"/>
        <path id="Trazado_714" data-name="Trazado 714" d="M5.018,7.959C6.356,5.444,7.071,5.228,8.162,3.026A5.133,5.133,0,0,0,6.939.313,3.979,3.979,0,0,0,6.611,0,20.068,20.068,0,0,0,4.265,4.859,17.94,17.94,0,0,1,0,11.742a10,10,0,0,0,3.585-.507A25.461,25.461,0,0,1,5.018,7.959Z" transform="translate(11.587 1.248)" fill="#d42d2a"/>
        <path id="Trazado_715" data-name="Trazado 715" d="M3.737,6.673c.947-2.36,1.534-2.35,2.316-4.715A20.211,20.211,0,0,0,6.618,0c-.985.249-2.053.622-3.6,1.115A19.031,19.031,0,0,1,2.85,3.75,13.023,13.023,0,0,1,0,9.638a16.265,16.265,0,0,0,2.334,1.395C2.824,10.193,2.863,8.849,3.737,6.673Z" transform="translate(3.201 0.386)" fill="#d42d2a"/>
      </g>
      <path id="Trazado_716" data-name="Trazado 716" d="M1.566.15A2.237,2.237,0,0,0,.07,2.617c.355,1.01,1.975,1.315,3.073.86C3.951,3.141,4.8,2.26,4.64,1.41,4.448.361,2.793-.317,1.566.15Z" transform="translate(15.516 8.72)" fill="#fff"/>
    </g>
  </g>
</svg>
