<svg xmlns="http://www.w3.org/2000/svg" xmlns:xlink="http://www.w3.org/1999/xlink" width="29" height="26" viewBox="0 0 29 26">
  <defs>
    <clipPath id="clip-path">
      <rect id="Rectángulo_181" data-name="Rectángulo 181" width="29" height="26" transform="translate(0.189)" fill="#ebebeb"/>
    </clipPath>
  </defs>
  <g id="pollo" transform="translate(-0.189)" clip-path="url(#clip-path)">
    <g id="roast-chicken" transform="translate(0.811)">
      <path id="Trazado_806" data-name="Trazado 806" d="M101.338,78.226l-1.1-1.1a1.652,1.652,0,1,0-3.073-1.192,1.652,1.652,0,1,0,1.193,3.073l1.1,1.1a.551.551,0,0,0,.779-.779l.323-.323a.551.551,0,0,0,.779-.779Z" transform="translate(-91.043 -71.448)" fill="#cfd8dc"/>
      <path id="Trazado_807" data-name="Trazado 807" d="M157.628,142.112c-.189-.189-.389-.406-.6-.637-1.1-1.194-2.6-2.829-4.747-2.829a3.606,3.606,0,0,0-3.3,3.855.558.558,0,0,0,.058.247l2.2,4.406a.551.551,0,0,0,.492.3.518.518,0,0,0,.1-.009l5.508-1.01a.551.551,0,0,0,.452-.542v-3.4A.551.551,0,0,0,157.628,142.112Z" transform="translate(-141.275 -132.031)" fill="#ffa000"/>
      <path id="Trazado_808" data-name="Trazado 808" d="M4.236,141.183a1.652,1.652,0,1,0-3.073-1.193,1.652,1.652,0,1,0,1.193,3.073l1.1,1.1a.551.551,0,1,0,.792-.765l-.014-.014.323-.323a.551.551,0,0,0,.779-.779Z" transform="translate(0 -132.202)" fill="#cfd8dc"/>
      <path id="Trazado_809" data-name="Trazado 809" d="M110.522,181.314c-3.015,0-7.111,3.056-8.592,4.511l-5.991,3.267a.551.551,0,0,0-.287.484,5.741,5.741,0,0,0,5.411,6.054l.1,0h6.609c3.855,0,9.363-5.188,9.363-8.812S113.806,181.314,110.522,181.314Z" transform="translate(-90.704 -172.494)" fill="#ffc107"/>
      <g id="Grupo_398" data-name="Grupo 398" transform="translate(14.358)">
        <path id="Trazado_810" data-name="Trazado 810" d="M279.152,18.472a.551.551,0,0,1-.39-.941c.673-.674.4-1.491-.11-2.77-.471-1.19-1.059-2.67.11-3.839a.551.551,0,0,1,.779.779c-.625.625-.355,1.415.135,2.654.482,1.218,1.084,2.735-.135,3.956A.55.55,0,0,1,279.152,18.472Z" transform="translate(-278.079 -10.754)" fill="#b0bec5"/>
        <path id="Trazado_811" data-name="Trazado 811" d="M363.953,18.224a.551.551,0,0,1-.39-.941c.673-.674.4-1.491-.11-2.77-.471-1.19-1.059-2.67.11-3.839a.551.551,0,1,1,.792.765l-.014.014c-.625.625-.355,1.415.135,2.654.482,1.218,1.084,2.735-.135,3.956A.551.551,0,0,1,363.953,18.224Z" transform="translate(-358.502 -10.506)" fill="#b0bec5"/>
        <path id="Trazado_812" data-name="Trazado 812" d="M449.286,18.224a.551.551,0,0,1-.39-.941c.673-.674.4-1.491-.11-2.77-.471-1.19-1.059-2.67.11-3.839a.551.551,0,1,1,.792.765l-.014.014c-.625.625-.355,1.415.135,2.654.482,1.218,1.084,2.735-.135,3.956A.551.551,0,0,1,449.286,18.224Z" transform="translate(-439.428 -10.506)" fill="#b0bec5"/>
      </g>
      <path id="Trazado_813" data-name="Trazado 813" d="M66.707,437.724a.551.551,0,0,0-.532-.41H43.042a.551.551,0,0,0-.273,1.029c.163.094,4.071,2.276,11.839,2.276s11.676-2.182,11.839-2.276A.551.551,0,0,0,66.707,437.724Z" transform="translate(-40.298 -415.276)" fill="#455a64"/>
      <path id="Trazado_814" data-name="Trazado 814" d="M323.165,246.975l-1.508-1.509a.551.551,0,0,0-.779,0l-3.3,3.3a.551.551,0,0,0,.39.941h1.776a.551.551,0,0,1,.522.726l-.618,1.855a.551.551,0,0,0,.853.615l2.374-1.78a2.754,2.754,0,0,0,.3-4.151Z" transform="translate(-301.022 -233.181)" fill="#ffa000"/>
      <path id="Trazado_815" data-name="Trazado 815" d="M72.38,206.019a9.322,9.322,0,0,1-.712-.845,5.405,5.405,0,0,0-4.635-2.621,3.133,3.133,0,0,0-3.3,3.3,5.432,5.432,0,0,0,1.813,4.245.551.551,0,0,0,.11.088,6.179,6.179,0,0,0,2.843.709,5.287,5.287,0,0,0,2.662-.709,3.675,3.675,0,0,0,1.827-2.44A2.006,2.006,0,0,0,72.38,206.019Z" transform="translate(-60.433 -192.633)" fill="#ffb300"/>
    </g>
  </g>
</svg>
