<svg xmlns="http://www.w3.org/2000/svg" xmlns:xlink="http://www.w3.org/1999/xlink" width="29" height="26" viewBox="0 0 29 26">
  <defs>
    <clipPath id="clip-path">
      <rect id="Rectángulo_183" data-name="Rectángulo 183" width="29" height="26" transform="translate(-0.149)" fill="#ebebeb"/>
    </clipPath>
  </defs>
  <g id="postres" transform="translate(0.149)" clip-path="url(#clip-path)">
    <g id="cake" transform="translate(1.824 0)">
      <path id="Trazado_834" data-name="Trazado 834" d="M397,197l1.016,16a.76.76,0,0,0,.267-.048l.077-.018a6.1,6.1,0,0,0,2.552-1.188,5.618,5.618,0,0,0,1.928-4.585V197Z" transform="translate(-376.84 -186.996)" fill="#ff7038"/>
      <path id="Trazado_835" data-name="Trazado 835" d="M0,197v8.125a.762.762,0,0,0,.511.719l20.414,7.109a.759.759,0,0,0,.25.042h0V197Z" transform="translate(0 -186.996)" fill="#ffde46"/>
      <path id="Trazado_836" data-name="Trazado 836" d="M237,209.857l8.89,3.1a.759.759,0,0,0,.251.042h0V197H237Z" transform="translate(-224.965 -186.996)" fill="#ff9d21"/>
      <path id="Trazado_837" data-name="Trazado 837" d="M0,257.506l21.175,7.374v-1.613L0,255.893Z" transform="translate(0 -242.899)" fill="#f5f0eb"/>
      <path id="Trazado_838" data-name="Trazado 838" d="M237,340.043l9.14,3.183v-1.613L237,338.43Z" transform="translate(-224.965 -321.245)" fill="#ebe1dc"/>
      <path id="Trazado_839" data-name="Trazado 839" d="M21.562,42.106a.762.762,0,0,0-.638-.063c-1.03.36-5.007,1.745-9.218,3.21-4.792,1.668-9.748,3.393-11.2,3.9a.762.762,0,0,0,0,1.438l13.3,4.632v3.789a1.777,1.777,0,0,0,3.555,0V56.46L20.924,57.7a.762.762,0,0,0,.638-.063A9.483,9.483,0,0,0,26,49.871,9.483,9.483,0,0,0,21.562,42.106Z" transform="translate(0 -39.867)" fill="#ffef7b"/>
      <path id="Trazado_840" data-name="Trazado 840" d="M246.527,42.106a.762.762,0,0,0-.638-.063c-1,.351-4.8,1.673-8.889,3.1V54.6l1.777.619v3.789a1.777,1.777,0,0,0,3.555,0V56.46l3.557,1.239a.762.762,0,0,0,.638-.063,9.483,9.483,0,0,0,4.437-7.765A9.483,9.483,0,0,0,246.527,42.106Z" transform="translate(-224.965 -39.867)" fill="#ffde46"/>
      <g id="Grupo_399" data-name="Grupo 399" transform="translate(18.176 7)">
        <ellipse id="Elipse_41" data-name="Elipse 41" cx="0.5" rx="0.5" transform="translate(1.851)" fill="#ff9d21"/>
        <ellipse id="Elipse_42" data-name="Elipse 42" cx="1" cy="0.5" rx="1" ry="0.5" transform="translate(2.851 3)" fill="#ff9d21"/>
        <circle id="Elipse_43" data-name="Elipse 43" transform="translate(1.851 6)" fill="#ff9d21"/>
        <ellipse id="Elipse_44" data-name="Elipse 44" cx="1" cy="1.5" rx="1" ry="1.5" transform="translate(-0.149 1)" fill="#ff9d21"/>
      </g>
      <path id="Trazado_841" data-name="Trazado 841" d="M184.79,4.571a.762.762,0,0,1-.762-.762,2.511,2.511,0,0,0-1.4-2.258l-.214-.107A.762.762,0,0,1,183.1.081l.214.107a4.026,4.026,0,0,1,2.238,3.621A.762.762,0,0,1,184.79,4.571Z" transform="translate(-172.755 -0.001)" fill="#beda4b"/>
      <path id="Trazado_842" data-name="Trazado 842" d="M237,31.465a.762.762,0,0,0,.762-.762,4.035,4.035,0,0,0-.762-2.37Z" transform="translate(-224.965 -26.895)" fill="#14cd6e"/>
      <path id="Trazado_843" data-name="Trazado 843" d="M175.3,66.6a3.3,3.3,0,1,1,3.3-3.3A3.3,3.3,0,0,1,175.3,66.6Z" transform="translate(-163.266 -56.953)" fill="#ff4169"/>
      <path id="Trazado_844" data-name="Trazado 844" d="M240.3,63.3A3.3,3.3,0,0,0,237,60v6.6A3.3,3.3,0,0,0,240.3,63.3Z" transform="translate(-224.965 -56.953)" fill="#cf3160"/>
    </g>
  </g>
</svg>
